<mxfile host="app.diagrams.net" agent="Mozilla/5.0 (X11; Ubuntu; Linux x86_64; rv:130.0) Gecko/20100101 Firefox/130.0" version="25.0.3">
  <diagram id="C5RBs43oDa-KdzZeNtuy" name="Page-1">
    <mxGraphModel dx="3094" dy="2494" grid="1" gridSize="10" guides="1" tooltips="1" connect="1" arrows="1" fold="1" page="1" pageScale="1" pageWidth="827" pageHeight="1169" math="0" shadow="0">
      <root>
        <mxCell id="WIyWlLk6GJQsqaUBKTNV-0" />
        <mxCell id="WIyWlLk6GJQsqaUBKTNV-1" parent="WIyWlLk6GJQsqaUBKTNV-0" />
        <mxCell id="zkfFHV4jXpPFQw0GAbJ--0" value="Game" style="swimlane;fontStyle=3;align=center;verticalAlign=top;childLayout=stackLayout;horizontal=1;startSize=26;horizontalStack=0;resizeParent=1;resizeLast=0;collapsible=1;marginBottom=0;rounded=0;shadow=0;strokeWidth=1;" parent="WIyWlLk6GJQsqaUBKTNV-1" vertex="1">
          <mxGeometry x="900" y="-870" width="430" height="650" as="geometry">
            <mxRectangle x="230" y="140" width="160" height="26" as="alternateBounds" />
          </mxGeometry>
        </mxCell>
        <mxCell id="zkfFHV4jXpPFQw0GAbJ--3" value="- screen : Surface &#xa;&#xa;- mode : str&#xa;&#xa;- backgrounds : dict[str, Surface]&#xa;&#xa;- current_background : Surface&#xa;&#xa; - font : Font&#xa;- player_units : list[Unit]&#xa;&#xa;- enemy_units : list[Unit] &#xa;&#xa;- animation_manager : AnimationManager &#xa;&#xa;- menu_manager : MenuManager &#xa;&#xa;- competence_manager : CompetenceManager" style="text;align=left;verticalAlign=top;spacingLeft=4;spacingRight=4;overflow=hidden;rotatable=0;points=[[0,0.5],[1,0.5]];portConstraint=eastwest;rounded=0;shadow=0;html=0;" parent="zkfFHV4jXpPFQw0GAbJ--0" vertex="1">
          <mxGeometry y="26" width="430" height="254" as="geometry" />
        </mxCell>
        <mxCell id="zkfFHV4jXpPFQw0GAbJ--4" value="" style="line;html=1;strokeWidth=1;align=left;verticalAlign=middle;spacingTop=-1;spacingLeft=3;spacingRight=3;rotatable=0;labelPosition=right;points=[];portConstraint=eastwest;" parent="zkfFHV4jXpPFQw0GAbJ--0" vertex="1">
          <mxGeometry y="280" width="430" height="40" as="geometry" />
        </mxCell>
        <mxCell id="wvxGMsRAUyCOwJ91_nCI-42" value="&lt;div&gt; + __init__(screen: Surface, mode: str, selected_characters: list[str]) &lt;br&gt;&lt;/div&gt;&lt;div&gt;&lt;br&gt;&lt;/div&gt;&lt;div&gt;&amp;nbsp;+ ajouter_competences() -&amp;gt; None &lt;br&gt;&lt;/div&gt;&lt;div&gt;&lt;br&gt;&lt;/div&gt;&lt;div&gt;&amp;nbsp;+ utiliser_competence(selected_unit: Unit) -&amp;gt; bool &lt;br&gt;&lt;/div&gt;&lt;div&gt;&lt;br&gt;&lt;/div&gt;&lt;div&gt;+ handle_player_turn() -&amp;gt; None &lt;br&gt;&lt;/div&gt;&lt;div&gt;&lt;br&gt;&lt;/div&gt;&lt;div&gt;+ handle_enemy_turn() -&amp;gt; None &lt;br&gt;&lt;/div&gt;&lt;div&gt;&lt;br&gt;&lt;/div&gt;&lt;div&gt;+ dessiner_grille() -&amp;gt; None &lt;br&gt;&lt;/div&gt;&lt;div&gt;&lt;br&gt;&lt;/div&gt;&lt;div&gt;+ flip_display(active_unit: Unit = None) -&amp;gt; None &lt;/div&gt;&lt;br&gt;&lt;div&gt;+ check_end_game() -&amp;gt; None &lt;br&gt;&lt;/div&gt;&lt;div&gt;&lt;br&gt;&lt;/div&gt;&lt;div&gt;+ afficher_message_fin(message: str) -&amp;gt; None &lt;br&gt;&lt;/div&gt;&lt;div&gt;&lt;br&gt;&lt;/div&gt;&lt;div&gt;+ afficher_interface_fin(resultat: str) -&amp;gt; str &lt;br&gt;&lt;/div&gt;&lt;div&gt;&lt;br&gt;&lt;/div&gt;+ reinitialiser_jeu() -&amp;gt; None     " style="text;html=1;align=left;verticalAlign=middle;resizable=0;points=[];autosize=1;strokeColor=none;fillColor=none;" vertex="1" parent="zkfFHV4jXpPFQw0GAbJ--0">
          <mxGeometry y="320" width="430" height="320" as="geometry" />
        </mxCell>
        <mxCell id="zkfFHV4jXpPFQw0GAbJ--6" value="MenuSelection" style="swimlane;fontStyle=1;align=center;verticalAlign=top;childLayout=stackLayout;horizontal=1;startSize=26;horizontalStack=0;resizeParent=1;resizeLast=0;collapsible=1;marginBottom=0;rounded=0;shadow=0;strokeWidth=1;" parent="WIyWlLk6GJQsqaUBKTNV-1" vertex="1">
          <mxGeometry x="-670" y="-100" width="340" height="310" as="geometry">
            <mxRectangle x="130" y="380" width="160" height="26" as="alternateBounds" />
          </mxGeometry>
        </mxCell>
        <mxCell id="zkfFHV4jXpPFQw0GAbJ--7" value="- screen : Surface &#xa;&#xa;- personnages : list[Entite]&#xa;&#xa;- modes : list[Entite]&#xa; &#xa;- selected_personnages : list[str]&#xa;&#xa;- selected_mode : str &#xa;&#xa;-step : str &#xa;&#xa;-clignotement : bool " style="text;align=left;verticalAlign=top;spacingLeft=4;spacingRight=4;overflow=hidden;rotatable=0;points=[[0,0.5],[1,0.5]];portConstraint=eastwest;" parent="zkfFHV4jXpPFQw0GAbJ--6" vertex="1">
          <mxGeometry y="26" width="340" height="204" as="geometry" />
        </mxCell>
        <mxCell id="zkfFHV4jXpPFQw0GAbJ--9" value="" style="line;html=1;strokeWidth=1;align=left;verticalAlign=middle;spacingTop=-1;spacingLeft=3;spacingRight=3;rotatable=0;labelPosition=right;points=[];portConstraint=eastwest;" parent="zkfFHV4jXpPFQw0GAbJ--6" vertex="1">
          <mxGeometry y="230" width="340" height="8" as="geometry" />
        </mxCell>
        <mxCell id="zkfFHV4jXpPFQw0GAbJ--11" value="+ afficher_menu_selection() -&gt; tuple[list[str], str]&#xa;&#xa;+ afficher_texte(text: str, x: int, y: int, color: tuple) -&gt; Non" style="text;align=left;verticalAlign=top;spacingLeft=4;spacingRight=4;overflow=hidden;rotatable=0;points=[[0,0.5],[1,0.5]];portConstraint=eastwest;" parent="zkfFHV4jXpPFQw0GAbJ--6" vertex="1">
          <mxGeometry y="238" width="340" height="72" as="geometry" />
        </mxCell>
        <mxCell id="zkfFHV4jXpPFQw0GAbJ--13" value="AnimationManager" style="swimlane;fontStyle=1;align=center;verticalAlign=top;childLayout=stackLayout;horizontal=1;startSize=26;horizontalStack=0;resizeParent=1;resizeLast=0;collapsible=1;marginBottom=0;rounded=0;shadow=0;strokeWidth=1;fontSize=11;" parent="WIyWlLk6GJQsqaUBKTNV-1" vertex="1">
          <mxGeometry x="310" y="-310" width="530" height="278" as="geometry">
            <mxRectangle x="330" y="360" width="170" height="26" as="alternateBounds" />
          </mxGeometry>
        </mxCell>
        <mxCell id="zkfFHV4jXpPFQw0GAbJ--14" value="- screen : Surface&#xa;   &#xa;- colors : dict&#xa; &#xa;- dimensions : dict&#xa;&#xa;- cell_size : int = 40 " style="text;align=left;verticalAlign=top;spacingLeft=4;spacingRight=4;overflow=hidden;rotatable=0;points=[[0,0.5],[1,0.5]];portConstraint=eastwest;" parent="zkfFHV4jXpPFQw0GAbJ--13" vertex="1">
          <mxGeometry y="26" width="530" height="110" as="geometry" />
        </mxCell>
        <mxCell id="zkfFHV4jXpPFQw0GAbJ--15" value="" style="line;html=1;strokeWidth=1;align=left;verticalAlign=middle;spacingTop=-1;spacingLeft=3;spacingRight=3;rotatable=0;labelPosition=right;points=[];portConstraint=eastwest;" parent="zkfFHV4jXpPFQw0GAbJ--13" vertex="1">
          <mxGeometry y="136" width="530" height="8" as="geometry" />
        </mxCell>
        <mxCell id="wvxGMsRAUyCOwJ91_nCI-13" value="&#xa;" style="group;align=left;labelPosition=center;verticalLabelPosition=middle;verticalAlign=middle;" vertex="1" connectable="0" parent="zkfFHV4jXpPFQw0GAbJ--13">
          <mxGeometry y="144" width="530" height="126" as="geometry" />
        </mxCell>
        <mxCell id="wvxGMsRAUyCOwJ91_nCI-3" value="+ __init__(screen, colors, dimensions, cell_size=40) " style="text;html=1;align=left;verticalAlign=middle;resizable=0;points=[];autosize=1;strokeColor=none;fillColor=none;container=1;" vertex="1" parent="wvxGMsRAUyCOwJ91_nCI-13">
          <mxGeometry width="370" height="30" as="geometry" />
        </mxCell>
        <mxCell id="wvxGMsRAUyCOwJ91_nCI-9" value="+ animer_attaque(x: int, y: int, sound_effect=None)" style="text;html=1;align=left;verticalAlign=middle;resizable=0;points=[];autosize=1;strokeColor=none;fillColor=none;container=1;" vertex="1" parent="wvxGMsRAUyCOwJ91_nCI-13">
          <mxGeometry y="30" width="370" height="30" as="geometry" />
        </mxCell>
        <mxCell id="wvxGMsRAUyCOwJ91_nCI-14" value="+ animer_deplacement(start_x: int, start_y: int, end_x: int, end_y: int, redraw_callback: callable) " style="text;html=1;align=left;verticalAlign=middle;resizable=0;points=[];autosize=1;strokeColor=none;fillColor=none;" vertex="1" parent="wvxGMsRAUyCOwJ91_nCI-13">
          <mxGeometry y="66" width="530" height="30" as="geometry" />
        </mxCell>
        <mxCell id="wvxGMsRAUyCOwJ91_nCI-15" value="+ animer_soin(x: int, y: int) " style="text;html=1;align=left;verticalAlign=middle;resizable=0;points=[];autosize=1;strokeColor=none;fillColor=none;" vertex="1" parent="wvxGMsRAUyCOwJ91_nCI-13">
          <mxGeometry y="96" width="160" height="30" as="geometry" />
        </mxCell>
        <mxCell id="zkfFHV4jXpPFQw0GAbJ--17" value="Unit" style="swimlane;fontStyle=1;align=center;verticalAlign=top;childLayout=stackLayout;horizontal=1;startSize=26;horizontalStack=0;resizeParent=1;resizeLast=0;collapsible=1;marginBottom=0;rounded=0;shadow=0;strokeWidth=1;" parent="WIyWlLk6GJQsqaUBKTNV-1" vertex="1">
          <mxGeometry x="-660" y="-850" width="870" height="680" as="geometry">
            <mxRectangle x="550" y="140" width="160" height="26" as="alternateBounds" />
          </mxGeometry>
        </mxCell>
        <mxCell id="zkfFHV4jXpPFQw0GAbJ--22" value=" - x : int &#xa;&#xa;- y : int &#xa;&#xa;- health : int&#xa; &#xa;- attack_power : int&#xa;&#xa;- team : str&#xa; &#xa;- nom : str&#xa; &#xa;- vitesse : int&#xa;&#xa;- is_selected : bool&#xa; &#xa;- competences : list[Competence]&#xa;&#xa;- etats : list[str]&#xa; &#xa;- vision_range : int&#xa;&#xa;- image : Surface " style="text;align=left;verticalAlign=top;spacingLeft=4;spacingRight=4;overflow=hidden;rotatable=0;points=[[0,0.5],[1,0.5]];portConstraint=eastwest;rounded=0;shadow=0;html=0;" parent="zkfFHV4jXpPFQw0GAbJ--17" vertex="1">
          <mxGeometry y="26" width="870" height="334" as="geometry" />
        </mxCell>
        <mxCell id="zkfFHV4jXpPFQw0GAbJ--23" value="" style="line;html=1;strokeWidth=1;align=left;verticalAlign=middle;spacingTop=-1;spacingLeft=3;spacingRight=3;rotatable=0;labelPosition=right;points=[];portConstraint=eastwest;" parent="zkfFHV4jXpPFQw0GAbJ--17" vertex="1">
          <mxGeometry y="360" width="870" height="30" as="geometry" />
        </mxCell>
        <mxCell id="wvxGMsRAUyCOwJ91_nCI-37" value="&lt;div&gt;+ __init__(x: int, y: int, health: int, attack_power: int, team: str, nom: str = &quot;Unité&quot;, vitesse: int = 1, etats: list = None, image_path: str = None, vision_range: int = 5)&lt;/div&gt;&lt;div&gt;&lt;br&gt;&lt;/div&gt;&lt;div&gt;+ move(dx: int, dy: int) -&amp;gt; None &lt;br&gt;&lt;/div&gt;&lt;div&gt;&lt;br&gt;&lt;/div&gt;&lt;div&gt;+ attack(target: Unit) -&amp;gt; None&amp;nbsp;&lt;/div&gt;&lt;div&gt;&lt;br&gt;&lt;/div&gt;&lt;div&gt;+ draw_vision(screen: Surface) -&amp;gt; None &lt;br&gt;&lt;/div&gt;&lt;div&gt;&lt;br&gt;&lt;/div&gt;&lt;div&gt;+ draw(screen: Surface, is_active: bool) -&amp;gt; None&lt;/div&gt;&lt;div&gt;&lt;br&gt;&lt;/div&gt;&lt;div&gt;+ take_damage(amount: int) -&amp;gt; None&lt;/div&gt;&lt;div&gt;&lt;br&gt;&lt;/div&gt;&lt;div&gt;+ heal(amount: int) -&amp;gt; None &lt;br&gt;&lt;/div&gt;&lt;div&gt;&lt;br&gt;&lt;/div&gt;&lt;div&gt;+ ajouter_competence(competence: Competence) -&amp;gt; None&lt;/div&gt;&lt;div&gt;&lt;br&gt;&lt;/div&gt;+ utiliser_competence(competence: Competence, utilisateur, cible) -&amp;gt; None" style="text;html=1;align=left;verticalAlign=middle;resizable=0;points=[];autosize=1;strokeColor=none;fillColor=none;" vertex="1" parent="zkfFHV4jXpPFQw0GAbJ--17">
          <mxGeometry y="390" width="870" height="260" as="geometry" />
        </mxCell>
        <mxCell id="wvxGMsRAUyCOwJ91_nCI-20" value="Competence" style="swimlane;fontStyle=1;align=center;verticalAlign=top;childLayout=stackLayout;horizontal=1;startSize=26;horizontalStack=0;resizeParent=1;resizeParentMax=0;resizeLast=0;collapsible=1;marginBottom=0;whiteSpace=wrap;html=1;" vertex="1" parent="WIyWlLk6GJQsqaUBKTNV-1">
          <mxGeometry x="-230" y="-120" width="470" height="300" as="geometry" />
        </mxCell>
        <mxCell id="wvxGMsRAUyCOwJ91_nCI-21" value="&lt;div&gt;- nom : str&lt;/div&gt;&lt;div&gt;&amp;nbsp;&lt;/div&gt;&lt;div&gt;- degats : int&lt;/div&gt;&lt;div&gt;&amp;nbsp;&lt;/div&gt;&lt;div&gt;- portee : int&lt;/div&gt;&lt;div&gt;&amp;nbsp;&lt;/div&gt;&lt;div&gt;- zone_effet : int = 1&lt;/div&gt;&lt;div&gt;&amp;nbsp;&lt;/div&gt;&lt;div&gt;- effet : str = None  &lt;/div&gt;" style="text;strokeColor=none;fillColor=none;align=left;verticalAlign=top;spacingLeft=4;spacingRight=4;overflow=hidden;rotatable=0;points=[[0,0.5],[1,0.5]];portConstraint=eastwest;whiteSpace=wrap;html=1;" vertex="1" parent="wvxGMsRAUyCOwJ91_nCI-20">
          <mxGeometry y="26" width="470" height="144" as="geometry" />
        </mxCell>
        <mxCell id="wvxGMsRAUyCOwJ91_nCI-22" value="" style="line;strokeWidth=1;fillColor=none;align=left;verticalAlign=middle;spacingTop=-1;spacingLeft=3;spacingRight=3;rotatable=0;labelPosition=right;points=[];portConstraint=eastwest;strokeColor=inherit;" vertex="1" parent="wvxGMsRAUyCOwJ91_nCI-20">
          <mxGeometry y="170" width="470" height="8" as="geometry" />
        </mxCell>
        <mxCell id="wvxGMsRAUyCOwJ91_nCI-23" value="&lt;div&gt;+ __init__(nom: str, degats: int, portee: int, zone_effet: int = 1, effet: str = None) &lt;br&gt;&lt;/div&gt;&lt;div&gt;&lt;br&gt;&lt;/div&gt;&lt;div&gt;+ est_a_portee(lanceur, cible) -&amp;gt; bool&lt;/div&gt;&lt;div&gt;&lt;br&gt; &lt;/div&gt;&lt;div&gt;+ appliquer_effet(cible) -&amp;gt; None &lt;br&gt;&lt;/div&gt;&lt;div&gt;&lt;br&gt;&lt;/div&gt;+ utiliser(lanceur, cible) -&amp;gt; bool  " style="text;strokeColor=none;fillColor=none;align=left;verticalAlign=top;spacingLeft=4;spacingRight=4;overflow=hidden;rotatable=0;points=[[0,0.5],[1,0.5]];portConstraint=eastwest;whiteSpace=wrap;html=1;" vertex="1" parent="wvxGMsRAUyCOwJ91_nCI-20">
          <mxGeometry y="178" width="470" height="122" as="geometry" />
        </mxCell>
        <mxCell id="wvxGMsRAUyCOwJ91_nCI-25" value="Entite" style="swimlane;fontStyle=1;align=center;verticalAlign=top;childLayout=stackLayout;horizontal=1;startSize=26;horizontalStack=0;resizeParent=1;resizeParentMax=0;resizeLast=0;collapsible=1;marginBottom=0;whiteSpace=wrap;html=1;" vertex="1" parent="WIyWlLk6GJQsqaUBKTNV-1">
          <mxGeometry x="290" y="-620" width="340" height="230" as="geometry" />
        </mxCell>
        <mxCell id="wvxGMsRAUyCOwJ91_nCI-26" value="&lt;div&gt; - nom : str &lt;br&gt;&lt;/div&gt;&lt;div&gt;&lt;br&gt;&lt;/div&gt;&lt;div&gt;- image : Surface &lt;br&gt;&lt;/div&gt;&lt;div&gt;&lt;br&gt;&lt;/div&gt;&lt;div&gt;- position : tuple &lt;br&gt;&lt;/div&gt;&lt;div&gt;&lt;br&gt;&lt;/div&gt;&lt;div&gt;- vitesse : int&lt;/div&gt;" style="text;strokeColor=none;fillColor=none;align=left;verticalAlign=top;spacingLeft=4;spacingRight=4;overflow=hidden;rotatable=0;points=[[0,0.5],[1,0.5]];portConstraint=eastwest;whiteSpace=wrap;html=1;" vertex="1" parent="wvxGMsRAUyCOwJ91_nCI-25">
          <mxGeometry y="26" width="340" height="124" as="geometry" />
        </mxCell>
        <mxCell id="wvxGMsRAUyCOwJ91_nCI-27" value="" style="line;strokeWidth=1;fillColor=none;align=left;verticalAlign=middle;spacingTop=-1;spacingLeft=3;spacingRight=3;rotatable=0;labelPosition=right;points=[];portConstraint=eastwest;strokeColor=inherit;" vertex="1" parent="wvxGMsRAUyCOwJ91_nCI-25">
          <mxGeometry y="150" width="340" height="8" as="geometry" />
        </mxCell>
        <mxCell id="wvxGMsRAUyCOwJ91_nCI-28" value="&lt;div&gt;+ __init__(nom: str, image: Surface, position: tuple,vitesse: int) &lt;br&gt;&lt;/div&gt;&lt;div&gt;&lt;br&gt;&lt;/div&gt;+ dessiner(screen: Surface, selectionne: bool) -&amp;gt; None  " style="text;strokeColor=none;fillColor=none;align=left;verticalAlign=top;spacingLeft=4;spacingRight=4;overflow=hidden;rotatable=0;points=[[0,0.5],[1,0.5]];portConstraint=eastwest;whiteSpace=wrap;html=1;" vertex="1" parent="wvxGMsRAUyCOwJ91_nCI-25">
          <mxGeometry y="158" width="340" height="72" as="geometry" />
        </mxCell>
        <mxCell id="wvxGMsRAUyCOwJ91_nCI-30" value="CompetenceManager   " style="swimlane;fontStyle=1;align=center;verticalAlign=top;childLayout=stackLayout;horizontal=1;startSize=26;horizontalStack=0;resizeParent=1;resizeParentMax=0;resizeLast=0;collapsible=1;marginBottom=0;whiteSpace=wrap;html=1;" vertex="1" parent="WIyWlLk6GJQsqaUBKTNV-1">
          <mxGeometry x="290" y="-840" width="480" height="180" as="geometry" />
        </mxCell>
        <mxCell id="wvxGMsRAUyCOwJ91_nCI-31" value="- log : list[tuple[str, str, str, str]]" style="text;strokeColor=none;fillColor=none;align=left;verticalAlign=top;spacingLeft=4;spacingRight=4;overflow=hidden;rotatable=0;points=[[0,0.5],[1,0.5]];portConstraint=eastwest;whiteSpace=wrap;html=1;" vertex="1" parent="wvxGMsRAUyCOwJ91_nCI-30">
          <mxGeometry y="26" width="480" height="24" as="geometry" />
        </mxCell>
        <mxCell id="wvxGMsRAUyCOwJ91_nCI-32" value="" style="line;strokeWidth=1;fillColor=none;align=left;verticalAlign=middle;spacingTop=-1;spacingLeft=3;spacingRight=3;rotatable=0;labelPosition=right;points=[];portConstraint=eastwest;strokeColor=inherit;" vertex="1" parent="wvxGMsRAUyCOwJ91_nCI-30">
          <mxGeometry y="50" width="480" height="38" as="geometry" />
        </mxCell>
        <mxCell id="wvxGMsRAUyCOwJ91_nCI-33" value="&lt;div&gt;+ __init__()&amp;nbsp;&lt;/div&gt;&lt;div&gt;&lt;br&gt;&lt;/div&gt;&lt;div&gt;+ utiliser_competence(competence: Competence, utilisateur, cible) -&amp;gt; None&lt;/div&gt;&lt;div&gt;&lt;br&gt;&lt;/div&gt;&lt;div&gt;+ afficher_log() -&amp;gt; None   &lt;/div&gt;" style="text;strokeColor=none;fillColor=none;align=left;verticalAlign=top;spacingLeft=4;spacingRight=4;overflow=hidden;rotatable=0;points=[[0,0.5],[1,0.5]];portConstraint=eastwest;whiteSpace=wrap;html=1;" vertex="1" parent="wvxGMsRAUyCOwJ91_nCI-30">
          <mxGeometry y="88" width="480" height="92" as="geometry" />
        </mxCell>
      </root>
    </mxGraphModel>
  </diagram>
</mxfile>
